<svg width="58" height="58" viewBox="0 0 58 58" fill="none" xmlns="http://www.w3.org/2000/svg">
<g filter="url(#filter0_d_0_4622)">
<rect x="4" width="50" height="50" rx="15" fill="#37C790"/>
<path fill-rule="evenodd" clip-rule="evenodd" d="M33.7224 24.9539V27.8847H32.4963V24.9539H31.9486V23.7684H32.4963C32.4963 22.6158 33.1257 21.9243 34.4826 22.0066V23.1921C34.0249 23.151 33.7224 23.2909 33.7224 23.7684H34.4826V24.9539H33.7224ZM30.3283 27.4978C30.0586 27.8106 29.658 28 29.1104 28C28.0395 28 27.1567 27.0532 27.1567 25.8266C27.1567 24.5999 28.0395 23.6532 29.1104 23.6532C29.658 23.6532 30.0586 23.8425 30.3283 24.1553V22.1219H31.5545V27.8847H30.3283V27.4978ZM14.0136 26.938C13.6621 27.5801 12.9673 28 12.1662 28C10.9237 28 10 27.0532 10 25.8266C10 24.5999 10.9237 23.6532 12.1662 23.6532C12.9591 23.6532 13.6621 24.073 14.0136 24.7069L12.9427 25.3326C12.8038 25.0445 12.5095 24.8716 12.1498 24.8716C11.6185 24.8716 11.2261 25.2585 11.2261 25.8266C11.2261 26.3946 11.6185 26.7816 12.1498 26.7816C12.5095 26.7816 12.812 26.6087 12.9427 26.3205L14.0136 26.938ZM15.5521 26.0242V27.8847H14.326V23.7684H15.5521V24.5011C15.7156 23.9495 16.2633 23.6861 16.7782 23.6861V25.0856C16.2714 25.0033 15.5521 25.2091 15.5521 26.0242ZM18.9707 28C20.1723 28 21.1369 27.0532 21.1369 25.8266C21.1369 24.5999 20.1723 23.6532 18.9707 23.6532C17.7691 23.6532 16.8045 24.5999 16.8045 25.8266C16.8045 27.0532 17.7691 28 18.9707 28ZM18.0307 25.8266C18.0307 26.4111 18.4394 26.798 18.9707 26.798C19.502 26.798 19.9108 26.4111 19.9108 25.8266C19.9108 25.2421 19.502 24.8551 18.9707 24.8551C18.4394 24.8551 18.0307 25.2421 18.0307 25.8266ZM23.4929 27.8847L24.1468 25.6866L24.8007 27.8847H25.9451L27.253 23.7684H25.9451L25.3566 25.9748L24.719 23.7684H23.5746L22.937 25.9748L22.3485 23.7684H21.0406L22.3485 27.8847H23.4929ZM29.3556 26.831C28.7916 26.831 28.3828 26.444 28.3828 25.8266C28.3828 25.2091 28.7916 24.8222 29.3556 24.8222C29.9196 24.8222 30.3283 25.2091 30.3283 25.8266C30.3283 26.444 29.9196 26.831 29.3556 26.831ZM36.1846 28C36.7241 28 37.1328 27.8024 37.3536 27.4978V27.8847H38.5797V23.7684H37.3536V26.0159C37.3536 26.6004 37.0429 26.8639 36.5933 26.8639C36.201 26.8639 35.8822 26.6251 35.8822 26.1147V23.7684H34.656V26.2958C34.656 27.4072 35.359 28 36.1846 28ZM40.4861 25.6372V27.8847H39.2599V23.7684H40.4861V24.1553C40.7068 23.8507 41.1155 23.6532 41.655 23.6532C42.4806 23.6532 43.1836 24.2459 43.1836 25.3573V27.8847H41.9574V25.5384C41.9574 25.028 41.6386 24.7893 41.2463 24.7893C40.7967 24.7893 40.4861 25.0527 40.4861 25.6372ZM45.5559 28C46.1036 28 46.5041 27.8106 46.7739 27.4978V27.8847H48V22.1219H46.7739V24.1553C46.5041 23.8425 46.1036 23.6532 45.5559 23.6532C44.4851 23.6532 43.6022 24.5999 43.6022 25.8266C43.6022 27.0532 44.4851 28 45.5559 28ZM44.8284 25.8266C44.8284 26.444 45.2371 26.831 45.8011 26.831C46.3651 26.831 46.7739 26.444 46.7739 25.8266C46.7739 25.2091 46.3651 24.8222 45.8011 24.8222C45.2371 24.8222 44.8284 25.2091 44.8284 25.8266Z" fill="white"/>
</g>
<defs>
<filter id="filter0_d_0_4622" x="0" y="0" width="58" height="58" filterUnits="userSpaceOnUse" color-interpolation-filters="sRGB">
<feFlood flood-opacity="0" result="BackgroundImageFix"/>
<feColorMatrix in="SourceAlpha" type="matrix" values="0 0 0 0 0 0 0 0 0 0 0 0 0 0 0 0 0 0 127 0" result="hardAlpha"/>
<feOffset dy="4"/>
<feGaussianBlur stdDeviation="2"/>
<feComposite in2="hardAlpha" operator="out"/>
<feColorMatrix type="matrix" values="0 0 0 0 0 0 0 0 0 0 0 0 0 0 0 0 0 0 0.25 0"/>
<feBlend mode="normal" in2="BackgroundImageFix" result="effect1_dropShadow_0_4622"/>
<feBlend mode="normal" in="SourceGraphic" in2="effect1_dropShadow_0_4622" result="shape"/>
</filter>
</defs>
</svg>
